<svg xmlns="http://www.w3.org/2000/svg" viewBox="215.24 187.23 588.53 607.54">
  <path fill="#000000" fill-rule="evenodd" d="M 480.79,788.70 L 513.22,780.59 L 539.62,771.45 L 588.11,748.21 L 636.61,715.88 L 680.52,677.02 L 717.89,634.60 L 750.20,586.13 L 775.45,534.63 L 791.60,487.19 L 797.69,461.82 L 802.76,428.36 L 803.77,369.72 L 798.66,336.01 L 784.42,292.26 L 765.02,258.57 L 750.62,241.08 L 732.66,224.15 L 714.14,211.81 L 695.66,202.56 L 672.09,194.37 L 638.44,188.25 L 602.87,187.23 L 580.47,189.27 L 549.13,194.32 L 517.73,202.43 L 476.37,217.56 L 450.05,229.71 L 414.72,249.89 L 378.40,275.11 L 346.11,302.36 L 321.32,327.16 L 282.01,376.54 L 263.79,405.89 L 248.59,435.28 L 227.41,492.77 L 220.30,523.23 L 215.24,560.71 L 215.24,602.28 L 219.31,632.83 L 228.46,667.40 L 238.70,690.95 L 250.98,711.42 L 262.31,725.83 L 281.25,744.78 L 314.87,768.21 L 341.50,780.50 L 373.08,789.67 L 399.61,793.75 L 433.21,794.77 Z M 380.57,740.26 L 353.19,734.40 L 334.82,727.63 L 311.52,714.04 L 292.64,697.09 L 283.11,684.70 L 271.42,662.30 L 264.64,642.94 L 257.76,601.65 L 257.76,564.29 L 262.69,527.82 L 271.58,493.26 L 279.43,471.65 L 303.20,422.13 L 334.89,375.59 L 352.63,354.90 L 382.85,324.68 L 423.50,291.96 L 451.15,274.18 L 484.82,256.36 L 513.47,244.50 L 541.15,235.61 L 565.78,229.70 L 595.28,225.76 L 633.67,225.76 L 652.15,228.68 L 667.61,232.54 L 693.91,244.23 L 709.26,254.79 L 723.20,268.73 L 737.71,290.01 L 750.41,322.24 L 755.28,344.67 L 757.23,364.16 L 756.25,404.57 L 748.36,448.96 L 732.55,497.38 L 704.82,552.83 L 679.10,590.42 L 652.40,622.07 L 615.25,657.24 L 575.66,686.93 L 530.17,712.64 L 489.73,728.42 L 443.37,739.27 L 406.48,741.73 Z M 330.07,682.19 L 350.38,673.29 L 372.81,660.09 L 398.46,642.72 L 432.08,612.29 L 454.33,583.97 L 478.50,544.69 L 502.59,497.50 L 537.53,421.63 L 573.31,364.00 L 594.06,338.35 L 622.11,311.13 L 656.44,283.14 L 677.13,270.76 L 680.39,265.52 L 678.53,261.02 L 670.63,261.48 L 655.12,267.14 L 636.98,276.11 L 621.20,284.80 L 583.89,307.66 L 542.95,345.69 L 522.69,371.01 L 489.47,424.35 L 449.42,509.46 L 416.57,571.19 L 389.86,608.84 L 364.26,637.47 L 344.35,656.41 L 316.74,677.60 L 318.34,684.49 Z"></path>
</svg>